# This file uses centimeters as units for non-parametric coordinates.

mtllib Bandera4.mtl
g default
v 0.009082 -0.874589 0.962121
v 0.009082 -0.874589 0.014342
v 0.009082 0.803224 0.014342
v -0.009082 0.803224 0.014342
v -0.009082 -0.874589 0.962121
v -0.009082 -0.874589 0.014342
v -0.009082 0.803224 0.489493
v -0.009082 -0.025740 0.489493
v 0.009082 -0.025740 0.489493
v 0.009082 0.803224 0.489493
v 0.009082 0.638860 0.655744
v 0.009082 0.558755 0.715254
v 0.009082 0.472189 0.764897
v 0.009082 0.380370 0.803979
v 0.009082 0.284582 0.831955
v 0.009082 0.186161 0.848435
v 0.009082 0.711384 0.587199
v -0.009082 0.186161 0.848435
v -0.009082 0.284582 0.831955
v -0.009082 0.380370 0.803979
v -0.009082 0.472189 0.764897
v -0.009082 0.558755 0.715254
v -0.009082 0.638860 0.655744
v -0.009082 0.711384 0.587199
vt 0.001992 0.776656
vt 0.010868 0.776656
vt 0.010868 0.821536
vt 0.001992 0.821536
vt 0.981641 0.001640
vt 0.981641 0.416446
vt 0.972765 0.416446
vt 0.972765 0.001640
vt 0.017779 0.001640
vt 0.026655 0.001640
vt 0.026655 0.821536
vt 0.017779 0.821536
vt 0.001992 0.001640
vt 0.010868 0.001640
vt 0.010868 0.519996
vt 0.001992 0.519996
vt 0.264329 0.001640
vt 0.496521 0.001640
vt 0.496521 0.821536
vt 0.264329 0.406729
vt 0.998008 0.416446
vt 0.989132 0.416446
vt 0.989132 0.001640
vt 0.998008 0.001640
vt 0.734026 0.821536
vt 0.734026 0.416446
vt 0.966218 0.001640
vt 0.966218 0.821536
vt 0.982996 0.652630
vt 0.974120 0.652630
vt 0.974120 0.420438
vt 0.982996 0.420438
vt 0.010868 0.568091
vt 0.001992 0.568091
vt 0.010868 0.614900
vt 0.001992 0.614900
vt 0.010868 0.659769
vt 0.001992 0.659769
vt 0.010868 0.702071
vt 0.001992 0.702071
vt 0.010868 0.741216
vt 0.001992 0.741216
vt 0.652785 0.741216
vt 0.623704 0.702071
vt 0.599445 0.659769
vt 0.580347 0.614900
vt 0.566676 0.568091
vt 0.558623 0.519996
vt 0.503068 0.001640
vt 0.686281 0.776656
vt 0.033370 0.821536
vt 0.088925 0.303180
vt 0.096978 0.255084
vt 0.110649 0.208276
vt 0.129747 0.163407
vt 0.154006 0.121104
vt 0.183087 0.081960
vt 0.216583 0.046519
vn 0.000000 0.711131 0.703059
vn 0.000000 0.711131 0.703059
vn 0.000000 0.987391 0.158299
vn 0.000000 0.987391 0.158298
vn 0.000000 -0.486465 -0.873700
vn 0.000000 -1.000000 0.000000
vn 0.000000 -1.000000 0.000000
vn 0.000000 -0.486465 -0.873700
vn 0.000000 0.000000 -1.000000
vn 0.000000 0.000000 -1.000000
vn 0.000000 0.000000 -1.000000
vn 0.000000 0.000000 -1.000000
vn 0.000000 0.106565 0.994306
vn 0.000000 0.106565 0.994306
vn 0.000000 0.111591 0.993754
vn 0.000000 0.111591 0.993754
vn -1.000000 0.000000 0.000000
vn -1.000000 0.000000 0.000000
vn -1.000000 0.000000 0.000000
vn -1.000000 0.000000 0.000000
vn 0.000000 -1.000000 0.000000
vn 0.000000 -1.000000 0.000000
vn 0.000000 -0.488443 0.872596
vn 0.000000 -0.488443 0.872596
vn 1.000000 0.000000 0.000000
vn 1.000000 0.000000 0.000000
vn 1.000000 0.000000 0.000000
vn 1.000000 0.000000 0.000000
vn 0.000000 0.987391 0.158298
vn 0.000000 0.987391 0.158299
vn 0.000000 1.000000 0.000000
vn 0.000000 1.000000 0.000000
vn 0.000000 0.111591 0.993754
vn 0.000000 0.223135 0.974788
vn 0.000000 0.223135 0.974788
vn 0.000000 0.111591 0.993754
vn 0.000000 0.223135 0.974788
vn 0.000000 0.336587 0.941652
vn 0.000000 0.336587 0.941652
vn 0.000000 0.223135 0.974788
vn 0.000000 0.336587 0.941652
vn 0.000000 0.445337 0.895363
vn 0.000000 0.445337 0.895363
vn 0.000000 0.336587 0.941652
vn 0.000000 0.445337 0.895363
vn 0.000000 0.547867 0.836566
vn 0.000000 0.547867 0.836566
vn 0.000000 0.445337 0.895363
vn 0.000000 0.547867 0.836566
vn 0.000000 0.642742 0.766082
vn 0.000000 0.642743 0.766082
vn 0.000000 0.547867 0.836566
vn 0.000000 0.642742 0.766082
vn 0.000000 0.711131 0.703059
vn 0.000000 0.711131 0.703059
vn 0.000000 0.642743 0.766082
vn 1.000000 0.000000 0.000000
vn 1.000000 0.000000 0.000000
vn 1.000000 0.000000 0.000000
vn 1.000000 0.000000 0.000000
vn 1.000000 0.000000 0.000000
vn 1.000000 0.000000 0.000000
vn 1.000000 0.000000 0.000000
vn 1.000000 0.000000 0.000000
vn 1.000000 0.000000 0.000000
vn 1.000000 0.000000 0.000000
vn -1.000000 0.000000 0.000000
vn -1.000000 0.000000 0.000000
vn -1.000000 0.000000 0.000000
vn -1.000000 0.000000 0.000000
vn -1.000000 0.000000 0.000000
vn -1.000000 0.000000 0.000000
vn -1.000000 0.000000 0.000000
vn -1.000000 0.000000 0.000000
vn -1.000000 0.000000 0.000000
vn -1.000000 0.000000 0.000000
s off
g pCube1
usemtl Bandera_lambert90SG1
f 24/1/1 17/2/2 10/3/3 7/4/4
f 5/5/5 8/6/6 9/7/7 1/8/8
f 2/9/9 6/10/10 4/11/11 3/12/12
f 5/13/13 1/14/14 16/15/15 18/16/16
f 7/17/17 4/18/18 6/19/19 8/20/20
f 9/21/21 8/22/22 6/23/23 2/24/24
f 10/25/25 9/26/26 2/27/27 3/28/28
f 7/29/29 10/30/30 3/31/31 4/32/32
f 16/15/33 15/33/34 19/34/35 18/16/36
f 15/33/37 14/35/38 20/36/39 19/34/40
f 14/35/41 13/37/42 21/38/43 20/36/44
f 13/37/45 12/39/46 22/40/47 21/38/48
f 12/39/49 11/41/50 23/42/51 22/40/52
f 11/41/53 17/2/54 24/1/55 23/42/56
f 11/43/57 12/44/58 13/45/59 14/46/60 15/47/61 16/48/62 1/49/63 9/26/64 10/25/65 17/50/66
f 7/17/67 8/20/68 5/51/69 18/52/70 19/53/71 20/54/72 21/55/73 22/56/74 23/57/75 24/58/76
