# This file uses centimeters as units for non-parametric coordinates.

mtllib Bandera.mtl
g default
v -0.962121 -0.874589 0.009082
v -0.014342 -0.874589 0.009082
v -0.014342 0.803224 0.009082
v -0.014342 0.803224 -0.009082
v -0.962121 -0.874589 -0.009082
v -0.014342 -0.874589 -0.009082
v -0.489493 0.803224 -0.009082
v -0.489493 -0.025740 -0.009082
v -0.489493 -0.025740 0.009082
v -0.489493 0.803224 0.009082
v -0.655744 0.638860 0.009082
v -0.715254 0.558755 0.009082
v -0.764897 0.472189 0.009082
v -0.803979 0.380370 0.009082
v -0.831955 0.284582 0.009082
v -0.848435 0.186161 0.009082
v -0.587199 0.711384 0.009082
v -0.848435 0.186161 -0.009082
v -0.831955 0.284582 -0.009082
v -0.803979 0.380370 -0.009082
v -0.764897 0.472189 -0.009082
v -0.715254 0.558755 -0.009082
v -0.655744 0.638860 -0.009082
v -0.587199 0.711384 -0.009082
vt 0.981641 0.001640
vt 0.981641 0.416446
vt 0.972765 0.416446
vt 0.972765 0.001640
vt 0.017779 0.001640
vt 0.026655 0.001640
vt 0.026655 0.821536
vt 0.017779 0.821536
vt 0.001992 0.001640
vt 0.010868 0.001640
vt 0.010868 0.519996
vt 0.001992 0.519996
vt 0.010868 0.568091
vt 0.001992 0.568091
vt 0.010868 0.614900
vt 0.001992 0.614900
vt 0.010868 0.659769
vt 0.001992 0.659769
vt 0.010868 0.702071
vt 0.001992 0.702071
vt 0.010868 0.741216
vt 0.001992 0.741216
vt 0.010868 0.776656
vt 0.001992 0.776656
vt 0.010868 0.821536
vt 0.001992 0.821536
vt 0.998008 0.416446
vt 0.989132 0.416446
vt 0.989132 0.001640
vt 0.998008 0.001640
vt 0.982996 0.652630
vt 0.974120 0.652630
vt 0.974120 0.420438
vt 0.982996 0.420438
vt 0.264329 0.001640
vt 0.496521 0.001640
vt 0.496521 0.821536
vt 0.264329 0.406729
vt 0.033370 0.821536
vt 0.088925 0.303180
vt 0.096978 0.255084
vt 0.110649 0.208276
vt 0.129747 0.163407
vt 0.154006 0.121104
vt 0.183087 0.081960
vt 0.216583 0.046519
vt 0.734026 0.821536
vt 0.734026 0.416446
vt 0.966218 0.001640
vt 0.966218 0.821536
vt 0.652785 0.741216
vt 0.623704 0.702071
vt 0.599445 0.659769
vt 0.580347 0.614900
vt 0.566676 0.568091
vt 0.558623 0.519996
vt 0.503068 0.001640
vt 0.686281 0.776656
vn -0.703059 0.711131 0.000000
vn -0.703059 0.711131 0.000000
vn -0.158299 0.987391 0.000000
vn -0.158298 0.987391 0.000000
vn 0.873700 -0.486465 0.000000
vn 0.000000 -1.000000 0.000000
vn 0.000000 -1.000000 0.000000
vn 0.873700 -0.486465 0.000000
vn 1.000000 0.000000 0.000000
vn 1.000000 0.000000 0.000000
vn 1.000000 0.000000 0.000000
vn 1.000000 0.000000 0.000000
vn -0.994306 0.106565 0.000000
vn -0.994306 0.106565 0.000000
vn -0.993754 0.111591 0.000000
vn -0.993754 0.111591 0.000000
vn -0.000000 0.000000 -1.000000
vn 0.000000 0.000000 -1.000000
vn 0.000000 0.000000 -1.000000
vn -0.000000 0.000000 -1.000000
vn 0.000000 -1.000000 0.000000
vn 0.000000 -1.000000 0.000000
vn -0.872596 -0.488443 0.000000
vn -0.872596 -0.488443 0.000000
vn 0.000000 -0.000000 1.000000
vn 0.000000 -0.000000 1.000000
vn 0.000000 0.000000 1.000000
vn 0.000000 0.000000 1.000000
vn -0.158298 0.987391 0.000000
vn -0.158299 0.987391 0.000000
vn 0.000000 1.000000 0.000000
vn 0.000000 1.000000 0.000000
vn -0.993754 0.111591 0.000000
vn -0.974788 0.223135 0.000000
vn -0.974788 0.223135 0.000000
vn -0.993754 0.111591 0.000000
vn -0.974788 0.223135 0.000000
vn -0.941652 0.336587 0.000000
vn -0.941652 0.336587 0.000000
vn -0.974788 0.223135 0.000000
vn -0.941652 0.336587 0.000000
vn -0.895363 0.445337 0.000000
vn -0.895363 0.445337 0.000000
vn -0.941652 0.336587 0.000000
vn -0.895363 0.445337 0.000000
vn -0.836566 0.547867 0.000000
vn -0.836566 0.547867 0.000000
vn -0.895363 0.445337 0.000000
vn -0.836566 0.547867 0.000000
vn -0.766082 0.642742 0.000000
vn -0.766082 0.642743 0.000000
vn -0.836566 0.547867 0.000000
vn -0.766082 0.642742 0.000000
vn -0.703059 0.711131 0.000000
vn -0.703059 0.711131 0.000000
vn -0.766082 0.642743 0.000000
vn 0.000000 -0.000000 1.000000
vn 0.000000 -0.000000 1.000000
vn 0.000000 -0.000000 1.000000
vn 0.000000 -0.000000 1.000000
vn 0.000000 -0.000000 1.000000
vn 0.000000 -0.000000 1.000000
vn 0.000000 -0.000000 1.000000
vn 0.000000 -0.000000 1.000000
vn 0.000000 -0.000000 1.000000
vn 0.000000 -0.000000 1.000000
vn -0.000000 0.000000 -1.000000
vn -0.000000 0.000000 -1.000000
vn -0.000000 0.000000 -1.000000
vn -0.000000 0.000000 -1.000000
vn -0.000000 0.000000 -1.000000
vn -0.000000 0.000000 -1.000000
vn -0.000000 0.000000 -1.000000
vn -0.000000 0.000000 -1.000000
vn -0.000000 0.000000 -1.000000
vn -0.000000 0.000000 -1.000000
s off
g pCube1
usemtl lambert90SG
f 24/24/1 17/23/2 10/25/3 7/26/4
f 5/1/5 8/2/6 9/3/7 1/4/8
f 2/5/9 6/6/10 4/7/11 3/8/12
f 5/9/13 1/10/14 16/11/15 18/12/16
f 7/35/17 4/36/18 6/37/19 8/38/20
f 9/27/21 8/28/22 6/29/23 2/30/24
f 10/47/25 9/48/26 2/49/27 3/50/28
f 7/31/29 10/32/30 3/33/31 4/34/32
f 16/11/33 15/13/34 19/14/35 18/12/36
f 15/13/37 14/15/38 20/16/39 19/14/40
f 14/15/41 13/17/42 21/18/43 20/16/44
f 13/17/45 12/19/46 22/20/47 21/18/48
f 12/19/49 11/21/50 23/22/51 22/20/52
f 11/21/53 17/23/54 24/24/55 23/22/56
f 11/51/57 12/52/58 13/53/59 14/54/60 15/55/61 16/56/62 1/57/63 9/48/64 10/47/65 17/58/66
f 7/35/67 8/38/68 5/39/69 18/40/70 19/41/71 20/42/72 21/43/73 22/44/74 23/45/75 24/46/76
