# This file uses centimeters as units for non-parametric coordinates.

mtllib LlantaIzq.mtl
g default
v -0.607282 -0.142479 -0.152078
v -0.533101 -0.324298 -0.155281
v -0.406358 -0.474290 -0.158328
v -0.239462 -0.577775 -0.160920
v -0.048746 -0.624627 -0.162802
v 0.147118 -0.610252 -0.163795
v 0.328960 -0.536058 -0.163798
v 0.478978 -0.409316 -0.162813
v 0.582488 -0.242422 -0.160929
v 0.629359 -0.051714 -0.158341
v 0.615000 0.144129 -0.155295
v 0.540820 0.325946 -0.152094
v 0.414075 0.475932 -0.149046
v 0.247179 0.579417 -0.146453
v 0.056464 0.626267 -0.144569
v -0.139401 0.611895 -0.143579
v -0.321243 0.537699 -0.143575
v -0.471261 0.410960 -0.144562
v -0.574772 0.244064 -0.146443
v -0.621640 0.053363 -0.149032
v -0.605504 -0.146836 0.136280
v -0.531323 -0.328655 0.133077
v -0.404579 -0.478648 0.130032
v -0.237682 -0.582126 0.127438
v -0.046968 -0.628978 0.125555
v 0.148899 -0.614606 0.124564
v 0.330740 -0.540410 0.124560
v 0.480758 -0.413667 0.125547
v 0.584268 -0.246771 0.127428
v 0.631136 -0.056073 0.130019
v 0.616780 0.139775 0.133063
v 0.542599 0.321590 0.136266
v 0.415856 0.471580 0.139314
v 0.248958 0.575068 0.141905
v 0.058241 0.621909 0.143789
v -0.137622 0.607537 0.144780
v -0.319464 0.533351 0.144783
v -0.469482 0.406602 0.143796
v -0.572990 0.239713 0.141914
v -0.619861 0.049014 0.139324
v 0.003859 0.000820 -0.153687
v -0.452718 -0.111008 0.135879
v -0.397083 -0.247370 0.133477
v -0.302026 -0.359871 0.131192
v -0.176851 -0.437476 0.129247
v -0.033815 -0.472613 0.127834
v 0.113084 -0.461831 0.127091
v 0.249464 -0.406190 0.127089
v 0.361978 -0.311130 0.127829
v 0.439609 -0.185961 0.129239
v 0.474763 -0.042938 0.131181
v 0.463993 0.103948 0.133466
v 0.408358 0.240310 0.135868
v 0.313301 0.352803 0.138153
v 0.188128 0.430417 0.140096
v 0.045091 0.465554 0.141509
v -0.101808 0.454771 0.142254
v -0.238188 0.399124 0.142256
v -0.350702 0.304069 0.141515
v -0.428335 0.178901 0.140103
v -0.463488 0.035870 0.138160
vt 0.375000 0.312500
vt 0.387500 0.312500
vt 0.387500 0.688440
vt 0.375000 0.688440
vt 0.400000 0.312500
vt 0.400000 0.688440
vt 0.412500 0.312500
vt 0.412500 0.688440
vt 0.425000 0.312500
vt 0.425000 0.688440
vt 0.437500 0.312500
vt 0.437500 0.688440
vt 0.450000 0.312500
vt 0.450000 0.688440
vt 0.462500 0.312500
vt 0.462500 0.688440
vt 0.475000 0.312500
vt 0.475000 0.688440
vt 0.487500 0.312500
vt 0.487500 0.688440
vt 0.500000 0.312500
vt 0.500000 0.688440
vt 0.512500 0.312500
vt 0.512500 0.688440
vt 0.525000 0.312500
vt 0.525000 0.688440
vt 0.537500 0.312500
vt 0.537500 0.688440
vt 0.550000 0.312500
vt 0.550000 0.688440
vt 0.562500 0.312500
vt 0.562500 0.688440
vt 0.575000 0.312500
vt 0.575000 0.688440
vt 0.587500 0.312500
vt 0.587500 0.688440
vt 0.600000 0.312500
vt 0.600000 0.688440
vt 0.612500 0.312500
vt 0.612500 0.688440
vt 0.625000 0.312500
vt 0.625000 0.688440
vt 0.626409 0.064408
vt 0.648603 0.107966
vt 0.500000 0.150000
vt 0.591842 0.029841
vt 0.548284 0.007647
vt 0.500000 -0.000000
vt 0.451716 0.007647
vt 0.408159 0.029841
vt 0.373591 0.064409
vt 0.351397 0.107966
vt 0.343750 0.156250
vt 0.351397 0.204534
vt 0.373591 0.248091
vt 0.408159 0.282659
vt 0.451716 0.304853
vt 0.500000 0.312500
vt 0.548284 0.304853
vt 0.591841 0.282659
vt 0.626409 0.248091
vt 0.648603 0.204534
vt 0.656250 0.156250
vt 0.578125 0.840625
vt 0.574301 0.864767
vt 0.563204 0.886546
vt 0.545921 0.903829
vt 0.524142 0.914926
vt 0.500000 0.918750
vt 0.475858 0.914926
vt 0.454079 0.903829
vt 0.436796 0.886546
vt 0.425699 0.864767
vt 0.421875 0.840625
vt 0.425699 0.816483
vt 0.436796 0.794704
vt 0.454079 0.777421
vt 0.475858 0.766324
vt 0.500000 0.762500
vt 0.524142 0.766324
vt 0.545921 0.777421
vt 0.563205 0.794704
vt 0.574301 0.816483
vt 0.656250 0.843750
vt 0.648603 0.892034
vt 0.626409 0.935591
vt 0.591841 0.970159
vt 0.548284 0.992353
vt 0.500000 1.000000
vt 0.451716 0.992353
vt 0.408159 0.970159
vt 0.373591 0.935591
vt 0.351397 0.892034
vt 0.343750 0.843750
vt 0.351397 0.795466
vt 0.373591 0.751909
vt 0.408159 0.717341
vt 0.451716 0.695147
vt 0.500000 0.687500
vt 0.548284 0.695147
vt 0.591842 0.717341
vt 0.626409 0.751908
vt 0.648603 0.795466
vn -0.973590 -0.228288 0.002557
vn -0.855416 -0.517935 -0.002550
vn -0.855415 -0.517937 -0.002551
vn -0.973590 -0.228291 0.002557
vn -0.855416 -0.517935 -0.002550
vn -0.653498 -0.756892 -0.007402
vn -0.653498 -0.756892 -0.007402
vn -0.855415 -0.517937 -0.002551
vn -0.653498 -0.756892 -0.007402
vn -0.387625 -0.921745 -0.011521
vn -0.387625 -0.921745 -0.011522
vn -0.653498 -0.756892 -0.007402
vn -0.387625 -0.921745 -0.011521
vn -0.083817 -0.996376 -0.014517
vn -0.083816 -0.996376 -0.014516
vn -0.387625 -0.921745 -0.011522
vn -0.083817 -0.996376 -0.014517
vn 0.228228 -0.973475 -0.016098
vn 0.228228 -0.973475 -0.016098
vn -0.083816 -0.996376 -0.014516
vn 0.228228 -0.973475 -0.016098
vn 0.517907 -0.855285 -0.016102
vn 0.517908 -0.855285 -0.016103
vn 0.228228 -0.973475 -0.016098
vn 0.517907 -0.855285 -0.016102
vn 0.756896 -0.653374 -0.014531
vn 0.756897 -0.653373 -0.014531
vn 0.517908 -0.855285 -0.016103
vn 0.756896 -0.653374 -0.014531
vn 0.921797 -0.387501 -0.011537
vn 0.921798 -0.387499 -0.011538
vn 0.756897 -0.653373 -0.014531
vn 0.921797 -0.387501 -0.011537
vn 0.996463 -0.083701 -0.007413
vn 0.996463 -0.083704 -0.007413
vn 0.921798 -0.387499 -0.011538
vn 0.996463 -0.083701 -0.007413
vn 0.973589 0.228292 -0.002561
vn 0.973589 0.228293 -0.002561
vn 0.996463 -0.083704 -0.007413
vn 0.973589 0.228292 -0.002561
vn 0.855408 0.517948 0.002542
vn 0.855410 0.517945 0.002543
vn 0.973589 0.228293 -0.002561
vn 0.855408 0.517948 0.002542
vn 0.653501 0.756890 0.007391
vn 0.653500 0.756890 0.007391
vn 0.855410 0.517945 0.002543
vn 0.653501 0.756890 0.007391
vn 0.387626 0.921745 0.011522
vn 0.387625 0.921745 0.011522
vn 0.653500 0.756890 0.007391
vn 0.387626 0.921745 0.011522
vn 0.083806 0.996376 0.014534
vn 0.083806 0.996376 0.014534
vn 0.387625 0.921745 0.011522
vn 0.083806 0.996376 0.014534
vn -0.228219 0.973477 0.016114
vn -0.228220 0.973476 0.016114
vn 0.083806 0.996376 0.014534
vn -0.228219 0.973477 0.016114
vn -0.517910 0.855283 0.016111
vn -0.517909 0.855284 0.016111
vn -0.228220 0.973476 0.016114
vn -0.517910 0.855283 0.016111
vn -0.756898 0.653372 0.014537
vn -0.756899 0.653370 0.014536
vn -0.517909 0.855284 0.016111
vn -0.756898 0.653372 0.014537
vn -0.921796 0.387503 0.011539
vn -0.921795 0.387505 0.011539
vn -0.756899 0.653370 0.014536
vn -0.921796 0.387503 0.011539
vn -0.996463 0.083702 0.007413
vn -0.996463 0.083704 0.007413
vn -0.921795 0.387505 0.011539
vn -0.996463 0.083702 0.007413
vn -0.973590 -0.228288 0.002557
vn -0.973590 -0.228291 0.002557
vn -0.996463 0.083704 0.007413
vn -0.006170 0.015094 -0.999867
vn -0.006173 0.015093 -0.999867
vn -0.006171 0.015094 -0.999867
vn -0.006171 0.015095 -0.999867
vn -0.006170 0.015094 -0.999867
vn -0.006171 0.015094 -0.999867
vn -0.006170 0.015097 -0.999867
vn -0.006171 0.015095 -0.999867
vn -0.006171 0.015094 -0.999867
vn -0.006169 0.015093 -0.999867
vn -0.006170 0.015097 -0.999867
vn -0.006171 0.015094 -0.999867
vn -0.006171 0.015095 -0.999867
vn -0.006169 0.015093 -0.999867
vn -0.006171 0.015094 -0.999867
vn -0.006173 0.015093 -0.999867
vn -0.006171 0.015095 -0.999867
vn -0.006171 0.015094 -0.999867
vn -0.006172 0.015092 -0.999867
vn -0.006173 0.015093 -0.999867
vn -0.006171 0.015094 -0.999867
vn -0.006170 0.015095 -0.999867
vn -0.006172 0.015092 -0.999867
vn -0.006171 0.015094 -0.999867
vn -0.006171 0.015089 -0.999867
vn -0.006170 0.015095 -0.999867
vn -0.006171 0.015094 -0.999867
vn -0.006171 0.015089 -0.999867
vn -0.006171 0.015089 -0.999867
vn -0.006171 0.015094 -0.999867
vn -0.006171 0.015095 -0.999867
vn -0.006171 0.015089 -0.999867
vn -0.006171 0.015094 -0.999867
vn -0.006170 0.015096 -0.999867
vn -0.006171 0.015095 -0.999867
vn -0.006171 0.015094 -0.999867
vn -0.006171 0.015095 -0.999867
vn -0.006170 0.015096 -0.999867
vn -0.006171 0.015094 -0.999867
vn -0.006170 0.015096 -0.999867
vn -0.006171 0.015095 -0.999867
vn -0.006171 0.015094 -0.999867
vn -0.006171 0.015091 -0.999867
vn -0.006170 0.015096 -0.999867
vn -0.006171 0.015094 -0.999867
vn -0.006172 0.015089 -0.999867
vn -0.006171 0.015091 -0.999867
vn -0.006171 0.015094 -0.999867
vn -0.006169 0.015098 -0.999867
vn -0.006172 0.015089 -0.999867
vn -0.006171 0.015094 -0.999867
vn -0.006170 0.015098 -0.999867
vn -0.006169 0.015098 -0.999867
vn -0.006171 0.015094 -0.999867
vn -0.006174 0.015090 -0.999867
vn -0.006170 0.015098 -0.999867
vn -0.006171 0.015094 -0.999867
vn -0.006173 0.015093 -0.999867
vn -0.006174 0.015090 -0.999867
vn -0.006171 0.015094 -0.999867
vn 0.006171 -0.015095 0.999867
vn 0.006171 -0.015095 0.999867
vn 0.006171 -0.015095 0.999867
vn 0.006171 -0.015095 0.999867
vn 0.006171 -0.015095 0.999867
vn 0.006171 -0.015095 0.999867
vn 0.006171 -0.015095 0.999867
vn 0.006171 -0.015095 0.999867
vn 0.006171 -0.015095 0.999867
vn 0.006171 -0.015095 0.999867
vn 0.006171 -0.015095 0.999867
vn 0.006171 -0.015095 0.999867
vn 0.006171 -0.015095 0.999867
vn 0.006171 -0.015095 0.999867
vn 0.006171 -0.015095 0.999867
vn 0.006171 -0.015095 0.999867
vn 0.006171 -0.015095 0.999867
vn 0.006171 -0.015095 0.999867
vn 0.006171 -0.015095 0.999867
vn 0.006171 -0.015095 0.999867
vn 0.006169 -0.015094 0.999867
vn 0.006171 -0.015092 0.999867
vn 0.006171 -0.015095 0.999867
vn 0.006171 -0.015095 0.999867
vn 0.006171 -0.015092 0.999867
vn 0.006174 -0.015095 0.999867
vn 0.006171 -0.015095 0.999867
vn 0.006171 -0.015095 0.999867
vn 0.006174 -0.015095 0.999867
vn 0.006171 -0.015096 0.999867
vn 0.006171 -0.015095 0.999867
vn 0.006171 -0.015095 0.999867
vn 0.006171 -0.015096 0.999867
vn 0.006171 -0.015094 0.999867
vn 0.006171 -0.015095 0.999867
vn 0.006171 -0.015095 0.999867
vn 0.006171 -0.015094 0.999867
vn 0.006169 -0.015096 0.999867
vn 0.006171 -0.015095 0.999867
vn 0.006171 -0.015095 0.999867
vn 0.006169 -0.015096 0.999867
vn 0.006170 -0.015097 0.999867
vn 0.006171 -0.015095 0.999867
vn 0.006171 -0.015095 0.999867
vn 0.006170 -0.015097 0.999867
vn 0.006172 -0.015091 0.999867
vn 0.006171 -0.015095 0.999867
vn 0.006171 -0.015095 0.999867
vn 0.006172 -0.015091 0.999867
vn 0.006170 -0.015094 0.999867
vn 0.006171 -0.015095 0.999867
vn 0.006171 -0.015095 0.999867
vn 0.006170 -0.015094 0.999867
vn 0.006171 -0.015099 0.999867
vn 0.006171 -0.015095 0.999867
vn 0.006171 -0.015095 0.999867
vn 0.006171 -0.015099 0.999867
vn 0.006171 -0.015098 0.999867
vn 0.006171 -0.015095 0.999867
vn 0.006171 -0.015095 0.999867
vn 0.006171 -0.015098 0.999867
vn 0.006171 -0.015089 0.999867
vn 0.006171 -0.015095 0.999867
vn 0.006171 -0.015095 0.999867
vn 0.006171 -0.015089 0.999867
vn 0.006170 -0.015091 0.999867
vn 0.006171 -0.015095 0.999867
vn 0.006171 -0.015095 0.999867
vn 0.006170 -0.015091 0.999867
vn 0.006171 -0.015092 0.999867
vn 0.006171 -0.015095 0.999867
vn 0.006171 -0.015095 0.999867
vn 0.006171 -0.015092 0.999867
vn 0.006174 -0.015089 0.999867
vn 0.006171 -0.015095 0.999867
vn 0.006171 -0.015095 0.999867
vn 0.006174 -0.015089 0.999867
vn 0.006172 -0.015089 0.999867
vn 0.006171 -0.015095 0.999867
vn 0.006171 -0.015095 0.999867
vn 0.006172 -0.015089 0.999867
vn 0.006171 -0.015090 0.999867
vn 0.006171 -0.015095 0.999867
vn 0.006171 -0.015095 0.999867
vn 0.006171 -0.015090 0.999867
vn 0.006171 -0.015090 0.999867
vn 0.006171 -0.015095 0.999867
vn 0.006171 -0.015095 0.999867
vn 0.006171 -0.015090 0.999867
vn 0.006171 -0.015092 0.999867
vn 0.006171 -0.015095 0.999867
vn 0.006171 -0.015095 0.999867
vn 0.006171 -0.015092 0.999867
vn 0.006171 -0.015096 0.999867
vn 0.006171 -0.015095 0.999867
vn 0.006171 -0.015095 0.999867
vn 0.006171 -0.015096 0.999867
vn 0.006169 -0.015094 0.999867
vn 0.006171 -0.015095 0.999867
vn 0.006171 -0.015095 0.999867
s off
g LlantaIzq:LlantaIzq_polySurface1776polySurface1769
usemtl LlantaIzq:LlantaIzq_lambert88SG
f 1/1/1 2/2/2 22/3/3 21/4/4
f 2/2/5 3/5/6 23/6/7 22/3/8
f 3/5/9 4/7/10 24/8/11 23/6/12
f 4/7/13 5/9/14 25/10/15 24/8/16
f 5/9/17 6/11/18 26/12/19 25/10/20
f 6/11/21 7/13/22 27/14/23 26/12/24
f 7/13/25 8/15/26 28/16/27 27/14/28
f 8/15/29 9/17/30 29/18/31 28/16/32
f 9/17/33 10/19/34 30/20/35 29/18/36
f 10/19/37 11/21/38 31/22/39 30/20/40
f 11/21/41 12/23/42 32/24/43 31/22/44
f 12/23/45 13/25/46 33/26/47 32/24/48
f 13/25/49 14/27/50 34/28/51 33/26/52
f 14/27/53 15/29/54 35/30/55 34/28/56
f 15/29/57 16/31/58 36/32/59 35/30/60
f 16/31/61 17/33/62 37/34/63 36/32/64
f 17/33/65 18/35/66 38/36/67 37/34/68
f 18/35/69 19/37/70 39/38/71 38/36/72
f 19/37/73 20/39/74 40/40/75 39/38/76
f 20/39/77 1/41/78 21/42/79 40/40/80
f 2/43/81 1/44/82 41/45/83
f 3/46/84 2/43/85 41/45/86
f 4/47/87 3/46/88 41/45/89
f 5/48/90 4/47/91 41/45/92
f 6/49/93 5/48/94 41/45/95
f 7/50/96 6/49/97 41/45/98
f 8/51/99 7/50/100 41/45/101
f 9/52/102 8/51/103 41/45/104
f 10/53/105 9/52/106 41/45/107
f 11/54/108 10/53/109 41/45/110
f 12/55/111 11/54/112 41/45/113
f 13/56/114 12/55/115 41/45/116
f 14/57/117 13/56/118 41/45/119
f 15/58/120 14/57/121 41/45/122
f 16/59/123 15/58/124 41/45/125
f 17/60/126 16/59/127 41/45/128
f 18/61/129 17/60/130 41/45/131
f 19/62/132 18/61/133 41/45/134
f 20/63/135 19/62/136 41/45/137
f 1/44/138 20/63/139 41/45/140
usemtl LlantaIzq:LlantaIzq_lambert91SG
f 61/64/141 42/65/142 43/66/143 44/67/144 45/68/145 46/69/146 47/70/147 48/71/148 49/72/149 50/73/150 51/74/151 52/75/152 53/76/153 54/77/154 55/78/155 56/79/156 57/80/157 58/81/158 59/82/159 60/83/160
usemtl LlantaIzq:LlantaIzq_lambert88SG
f 40/84/161 21/85/162 42/65/163 61/64/164
f 21/85/165 22/86/166 43/66/167 42/65/168
f 22/86/169 23/87/170 44/67/171 43/66/172
f 23/87/173 24/88/174 45/68/175 44/67/176
f 24/88/177 25/89/178 46/69/179 45/68/180
f 25/89/181 26/90/182 47/70/183 46/69/184
f 26/90/185 27/91/186 48/71/187 47/70/188
f 27/91/189 28/92/190 49/72/191 48/71/192
f 28/92/193 29/93/194 50/73/195 49/72/196
f 29/93/197 30/94/198 51/74/199 50/73/200
f 30/94/201 31/95/202 52/75/203 51/74/204
f 31/95/205 32/96/206 53/76/207 52/75/208
f 32/96/209 33/97/210 54/77/211 53/76/212
f 33/97/213 34/98/214 55/78/215 54/77/216
f 34/98/217 35/99/218 56/79/219 55/78/220
f 35/99/221 36/100/222 57/80/223 56/79/224
f 36/100/225 37/101/226 58/81/227 57/80/228
f 37/101/229 38/102/230 59/82/231 58/81/232
f 38/102/233 39/103/234 60/83/235 59/82/236
f 39/103/237 40/84/238 61/64/239 60/83/240
