# This file uses centimeters as units for non-parametric coordinates.

mtllib CajaDeLaCaja.mtl
g default
v -0.006431 -0.410577 -2.987331
v 1.337888 -0.410577 -2.987331
v -0.006431 0.151346 -2.987331
v 1.337888 0.151346 -2.987331
v -0.006431 0.151346 -4.752919
v 1.337888 0.151346 -4.752919
v -0.006431 -0.410577 -4.752919
v 1.337888 -0.410577 -4.752919
v 0.009087 0.151346 -2.999938
v 1.322370 0.151346 -2.999938
v 1.322370 0.151346 -4.740312
v 0.009087 0.151346 -4.740312
v 0.009087 -0.378055 -2.999938
v 1.322370 -0.378055 -2.999938
v 1.322370 -0.378055 -4.740312
v 0.009087 -0.378055 -4.740312
vt 0.867522 0.405590
vt 0.867522 0.270657
vt 0.923924 0.270657
vt 0.923924 0.405590
vt 0.608311 0.500694
vt 0.740130 0.500694
vt 0.740130 0.675381
vt 0.608311 0.675381
vt 0.931837 0.405590
vt 0.931837 0.270657
vt 0.988239 0.270657
vt 0.988239 0.405590
vt 0.041800 0.274848
vt 0.176734 0.274848
vt 0.176734 0.452067
vt 0.041800 0.452067
vt 0.001992 0.633276
vt 0.001992 0.456058
vt 0.058394 0.456058
vt 0.058394 0.633276
vt 0.064553 0.633276
vt 0.064553 0.456058
vt 0.120956 0.456058
vt 0.120956 0.633276
vt 0.128869 0.487422
vt 0.263803 0.487422
vt 0.262245 0.488687
vt 0.130426 0.488687
vt 0.263803 0.664640
vt 0.262245 0.663375
vt 0.128869 0.664640
vt 0.130426 0.663375
vt 0.944870 0.541401
vt 0.944870 0.409582
vt 0.998008 0.409582
vt 0.998008 0.541401
vt 0.799825 0.500694
vt 0.799825 0.675381
vt 0.746687 0.675381
vt 0.746687 0.500694
vt 0.938735 0.409582
vt 0.938735 0.541401
vt 0.885597 0.541401
vt 0.885597 0.409582
vt 0.860242 0.270657
vt 0.860242 0.445344
vt 0.807104 0.445344
vt 0.807104 0.270657
vn 0.000000 0.000000 1.000000
vn 0.000000 0.000000 1.000000
vn 0.000000 0.000000 1.000000
vn 0.000000 0.000000 1.000000
vn 0.000000 1.000000 0.000000
vn 0.000000 1.000000 0.000000
vn 0.000000 1.000000 0.000000
vn 0.000000 1.000000 0.000000
vn 0.000000 0.000000 -1.000000
vn 0.000000 0.000000 -1.000000
vn 0.000000 0.000000 -1.000000
vn 0.000000 0.000000 -1.000000
vn 0.000000 -1.000000 0.000000
vn 0.000000 -1.000000 0.000000
vn 0.000000 -1.000000 0.000000
vn 0.000000 -1.000000 0.000000
vn 1.000000 0.000000 0.000000
vn 1.000000 0.000000 0.000000
vn 1.000000 0.000000 0.000000
vn 1.000000 0.000000 0.000000
vn -1.000000 0.000000 0.000000
vn -1.000000 0.000000 0.000000
vn -1.000000 0.000000 0.000000
vn -1.000000 0.000000 0.000000
vn 0.000000 1.000000 -0.000001
vn 0.000000 1.000000 -0.000001
vn 0.000000 1.000000 -0.000001
vn 0.000000 1.000000 -0.000001
vn 0.000000 1.000000 0.000000
vn 0.000000 1.000000 0.000000
vn 0.000000 1.000000 0.000000
vn 0.000000 1.000000 0.000000
vn 0.000000 1.000000 0.000001
vn 0.000000 1.000000 0.000001
vn 0.000000 1.000000 0.000001
vn 0.000000 1.000000 0.000001
vn 0.000000 1.000000 0.000000
vn 0.000000 1.000000 0.000000
vn 0.000000 1.000000 0.000000
vn 0.000000 1.000000 0.000000
vn 0.000000 0.000000 -1.000000
vn 0.000000 0.000000 -1.000000
vn 0.000000 0.000000 -1.000000
vn 0.000000 0.000000 -1.000000
vn -1.000000 0.000000 0.000000
vn -1.000000 0.000000 0.000000
vn -1.000000 0.000000 0.000000
vn -1.000000 0.000000 0.000000
vn 0.000000 0.000000 1.000000
vn 0.000000 0.000000 1.000000
vn 0.000000 0.000000 1.000000
vn 0.000000 0.000000 1.000000
vn 1.000000 0.000000 0.000000
vn 1.000000 0.000000 0.000000
vn 1.000000 0.000000 0.000000
vn 1.000000 0.000000 0.000000
s off
g CajaDeLaCaja:polySurface163pCylinder26
usemtl initialShadingGroup
f 1/1/1 2/2/2 4/3/3 3/4/4
f 13/5/5 14/6/6 15/7/7 16/8/8
f 5/9/9 6/10/10 8/11/11 7/12/12
f 7/13/13 8/14/14 2/15/15 1/16/16
f 2/17/17 8/18/18 6/19/19 4/20/20
f 7/21/21 1/22/22 3/23/23 5/24/24
f 3/25/25 4/26/26 10/27/27 9/28/28
f 4/26/29 6/29/30 11/30/31 10/27/32
f 6/29/33 5/31/34 12/32/35 11/30/36
f 5/31/37 3/25/38 9/28/39 12/32/40
f 9/33/41 10/34/42 14/35/43 13/36/44
f 10/37/45 11/38/46 15/39/47 14/40/48
f 11/41/49 12/42/50 16/43/51 15/44/52
f 12/45/53 9/46/54 13/47/55 16/48/56
