# This file uses centimeters as units for non-parametric coordinates.

mtllib Puerta2.mtl
g default
v -0.264689 8.798956 -4.862673
v -0.264689 8.560964 -3.360025
v 0.264688 3.936287 -0.000001
v 0.264688 5.438935 -0.237998
v 0.264688 7.870272 -2.004466
v 0.264688 8.560964 -3.360024
v -0.264689 8.560964 -3.360024
v -0.264689 7.870272 -2.004466
v 0.264688 6.794495 -0.928688
v -0.264689 7.870272 -2.004466
v -0.264689 6.794495 -0.928688
v -0.264689 6.794494 -0.928688
v 0.264688 8.798956 -4.862673
v -0.264689 5.438936 -0.237998
v 0.264688 -3.936286 -0.000001
v -0.264689 5.438935 -0.237998
v -0.264689 3.936287 -0.000001
v -0.264689 -3.936286 -0.000001
v -0.262352 3.940935 -4.869895
v -0.264689 -3.936286 -4.870636
v 0.268894 -3.936286 -4.870636
v 0.266556 3.940935 -4.869895
vt 0.175197 0.985007
vt 0.169608 0.998008
vt 0.169608 0.998008
vt 0.167472 0.932250
vt 0.167472 0.932250
vt 0.622506 0.320999
vt 0.622506 0.001992
vt 0.819870 0.001992
vt 0.819840 0.321187
vt 0.632150 0.381888
vt 0.632150 0.381888
vt 0.660138 0.436817
vt 0.615688 0.001992
vt 0.615688 0.320999
vt 0.418354 0.321187
vt 0.418324 0.001992
vt 0.606045 0.381888
vt 0.578057 0.436817
vt 0.534465 0.480409
vt 0.479536 0.508396
vt 0.418647 0.518040
vt 0.106264 0.709232
vt 0.051335 0.681244
vt 0.167446 0.522023
vt 0.106264 0.709232
vt 0.167153 0.718876
vt 0.161209 0.838969
vt 0.117617 0.882561
vt 0.001988 0.722858
vt 0.798410 0.850271
vt 0.798410 0.444026
vt 0.995774 0.440799
vt 0.995774 0.850271
vt 0.792288 0.847044
vt 0.731399 0.847044
vt 0.731399 0.440799
vt 0.792288 0.440799
vt 0.725277 0.847044
vt 0.670349 0.847044
vt 0.670349 0.440799
vt 0.725277 0.440799
vt 0.003781 0.321187
vt 0.001988 0.001992
vt 0.411459 0.001992
vt 0.409666 0.321187
vt 0.408233 0.518040
vt 0.001988 0.518040
vt 0.614513 0.928267
vt 0.559585 0.928267
vt 0.559585 0.522022
vt 0.614513 0.522022
vt 0.234456 0.928267
vt 0.173567 0.928267
vt 0.173567 0.522022
vt 0.234456 0.522022
vt 0.553463 0.928267
vt 0.553463 0.522022
vt 0.664227 0.847044
vt 0.620635 0.847044
vt 0.620635 0.440799
vt 0.664227 0.440799
vn 0.000000 0.000094 -1.000000
vn 0.000000 0.000094 -1.000000
vn 0.000000 0.000094 -1.000000
vn 0.000000 0.000094 -1.000000
vn -1.000000 0.000148 -0.000240
vn -1.000000 0.000148 -0.000240
vn -1.000000 0.000148 -0.000240
vn -1.000000 0.000148 -0.000240
vn 0.000000 -1.000000 0.000000
vn 0.000000 -1.000000 0.000000
vn 0.000000 -1.000000 0.000000
vn 0.000000 -1.000000 0.000000
vn 1.000000 0.000148 0.000624
vn 1.000000 0.000148 0.000624
vn 1.000000 0.000148 0.000624
vn 1.000000 0.000148 0.000624
vn 1.000000 0.000346 0.000177
vn 1.000000 0.000346 0.000177
vn 1.000000 0.000346 0.000177
vn -1.000000 -0.000434 -0.000221
vn -1.000000 -0.000434 -0.000221
vn -1.000000 -0.000434 -0.000221
vn 1.000000 0.000275 0.000275
vn 1.000000 0.000275 0.000275
vn 1.000000 0.000275 0.000275
vn 0.000000 0.000000 0.000000
vn 0.000000 0.000000 0.000000
vn 0.000000 0.000000 0.000000
vn -1.000000 -0.000344 -0.000344
vn -1.000000 -0.000344 -0.000344
vn -1.000000 -0.000344 -0.000344
vn -1.000000 0.000000 0.000000
vn -1.000000 0.000000 0.000000
vn -1.000000 0.000000 0.000000
vn 1.000000 0.000384 0.000061
vn 1.000000 0.000384 0.000061
vn 1.000000 0.000384 0.000061
vn 0.000000 0.001487 -0.999999
vn 0.000000 0.001487 -0.999999
vn 0.000000 0.001487 -0.999999
vn 0.000000 0.001487 -0.999999
vn -1.000000 -0.000481 -0.000076
vn -1.000000 -0.000481 -0.000076
vn -1.000000 -0.000481 -0.000076
vn -0.999993 -0.003672 0.000000
vn -0.999993 -0.003672 0.000000
vn -0.999993 -0.003672 0.000000
vn 1.000000 0.000176 0.000346
vn 1.000000 0.000176 0.000346
vn 1.000000 0.000176 0.000346
vn -1.000000 -0.000221 -0.000433
vn -1.000000 -0.000221 -0.000433
vn -1.000000 -0.000221 -0.000433
vn 1.000000 0.000061 0.000383
vn 1.000000 0.000061 0.000383
vn 1.000000 0.000061 0.000383
vn -1.000000 0.000000 -0.000778
vn -0.000000 0.000000 -0.000000
vn -1.000000 0.000000 -0.000778
vn -1.000000 -0.000076 -0.000480
vn -1.000000 -0.000076 -0.000480
vn -1.000000 -0.000076 -0.000480
vn -0.000000 0.987689 0.156432
vn -0.000000 0.987689 0.156432
vn -0.000000 0.987689 0.156432
vn -0.000000 0.987689 0.156432
vn 0.000000 0.891006 0.453991
vn 0.000000 0.891006 0.453991
vn 0.000000 0.891006 0.453991
vn 0.000000 0.891006 0.453991
vn 0.000000 0.707107 0.707106
vn 0.000000 0.707107 0.707106
vn 0.000000 0.707107 0.707106
vn 0.000000 0.707107 0.707106
vn 0.000000 0.453990 0.891007
vn 0.000000 0.453990 0.891007
vn 0.000000 0.453990 0.891007
vn 0.000000 0.453990 0.891007
vn -0.000000 0.156435 0.987688
vn -0.000000 0.156435 0.987688
vn -0.000000 0.156435 0.987688
vn -0.000000 0.156435 0.987688
vn 0.000000 0.000000 1.000000
vn 0.000000 0.000000 1.000000
vn 0.000000 0.000000 1.000000
vn 0.000000 0.000000 1.000000
s off
g Cajaregistradora:polySurface31
usemtl Cajaregistradora:phong1SG
f 19/42/1 22/45/2 21/44/3 20/43/4
f 17/6/5 19/9/6 20/8/7 18/7/8
f 18/30/9 20/33/10 21/32/11 15/31/12
f 15/13/13 21/16/14 22/15/15 3/14/16
f 5/19/17 22/15/18 6/20/19
f 7/22/20 19/24/21 8/23/22
f 9/18/23 22/15/24 5/19/25
f 8/2/26 19/1/27 10/3/28
f 10/27/29 19/29/30 11/28/31
f 11/4/32 19/1/33 12/5/34
f 6/20/35 22/15/36 13/21/37
f 13/46/38 22/45/39 19/42/40 1/47/41
f 1/26/42 19/24/43 2/25/44
f 2/25/45 19/24/46 7/22/47
f 4/17/48 22/15/49 9/18/50
f 12/12/51 19/9/52 14/11/53
f 3/14/54 22/15/55 4/17/56
f 14/11/57 19/9/58 16/10/59
f 16/10/60 19/9/61 17/6/62
f 2/34/63 6/37/64 13/36/65 1/35/66
f 8/38/67 5/41/68 6/40/69 7/39/70
f 11/58/71 9/61/72 5/60/73 10/59/74
f 14/48/75 4/51/76 9/50/77 12/49/78
f 17/52/79 3/55/80 4/54/81 16/53/82
f 18/56/83 15/57/84 3/55/85 17/52/86
