# This file uses centimeters as units for non-parametric coordinates.

mtllib PuertaHorno.mtl
g default
v 34.545209 3.562831 -10.893427
v 34.545209 3.510903 -11.204475
v 34.654791 2.501850 -11.900000
v 34.654791 2.829711 -11.850734
v 34.654791 3.360202 -11.485076
v 34.654791 3.510903 -11.204475
v 34.545209 3.510903 -11.204475
v 34.545209 3.360202 -11.485076
v 34.654791 3.125479 -11.707762
v 34.545209 3.360202 -11.485076
v 34.545209 3.125479 -11.707762
v 34.545209 3.125479 -11.707762
v 34.654791 3.562831 -10.893427
v 34.545209 2.829711 -11.850734
v 34.654791 0.784141 -11.900000
v 34.545209 2.829711 -11.850734
v 34.545209 2.501850 -11.900000
v 34.545209 0.784141 -11.900000
v 34.545693 2.502864 -10.891932
v 34.545209 0.784141 -10.891778
v 34.655661 0.784141 -10.891778
v 34.655177 2.502864 -10.891932
v 34.545209 3.562831 -10.827557
v 34.545209 3.510903 -10.516510
v 34.654790 2.501850 -9.820984
v 34.654790 2.829711 -9.870250
v 34.654790 3.360202 -10.235909
v 34.654790 3.510903 -10.516509
v 34.545209 3.510903 -10.516509
v 34.545209 3.360202 -10.235909
v 34.654790 3.125479 -10.013223
v 34.545209 3.360202 -10.235909
v 34.545209 3.125479 -10.013223
v 34.545209 3.125479 -10.013223
v 34.654790 3.562831 -10.827557
v 34.545209 2.829711 -9.870250
v 34.654790 0.784141 -9.820984
v 34.545209 2.829711 -9.870250
v 34.545209 2.501850 -9.820984
v 34.545209 0.784141 -9.820984
v 34.545693 2.502864 -10.829053
v 34.545209 0.784141 -10.829206
v 34.655661 0.784141 -10.829206
v 34.655177 2.502864 -10.829053
vt 0.003781 0.321187
vt 0.001988 0.001992
vt 0.411459 0.001992
vt 0.409666 0.321187
vt 0.622506 0.320999
vt 0.622506 0.001992
vt 0.819870 0.001992
vt 0.819840 0.321187
vt 0.798410 0.850271
vt 0.798410 0.444026
vt 0.995774 0.440799
vt 0.995774 0.850271
vt 0.615688 0.001992
vt 0.615688 0.320999
vt 0.418354 0.321187
vt 0.418324 0.001992
vt 0.534465 0.480409
vt 0.479536 0.508396
vt 0.106264 0.709232
vt 0.051335 0.681244
vt 0.167446 0.522023
vt 0.578057 0.436817
vt 0.169608 0.998008
vt 0.169608 0.998008
vt 0.175197 0.985007
vt 0.161209 0.838969
vt 0.117617 0.882561
vt 0.001988 0.722858
vt 0.167472 0.932250
vt 0.167472 0.932250
vt 0.418647 0.518040
vt 0.408233 0.518040
vt 0.001988 0.518040
vt 0.167153 0.718876
vt 0.106264 0.709232
vt 0.606045 0.381888
vt 0.660138 0.436817
vt 0.632150 0.381888
vt 0.632150 0.381888
vt 0.792288 0.847044
vt 0.731399 0.847044
vt 0.731399 0.440799
vt 0.792288 0.440799
vt 0.725277 0.847044
vt 0.670349 0.847044
vt 0.670349 0.440799
vt 0.725277 0.440799
vt 0.664227 0.847044
vt 0.620635 0.847044
vt 0.620635 0.440799
vt 0.664227 0.440799
vt 0.614513 0.928267
vt 0.559585 0.928267
vt 0.559585 0.522022
vt 0.614513 0.522022
vt 0.234456 0.928267
vt 0.173567 0.928267
vt 0.173567 0.522022
vt 0.234456 0.522022
vt 0.553463 0.928267
vt 0.553463 0.522022
vt 0.003781 0.321187
vt 0.409666 0.321187
vt 0.411459 0.001992
vt 0.001988 0.001992
vt 0.622506 0.320999
vt 0.819840 0.321187
vt 0.819870 0.001992
vt 0.622506 0.001992
vt 0.798410 0.850271
vt 0.995774 0.850271
vt 0.995774 0.440799
vt 0.798410 0.444026
vt 0.615688 0.001992
vt 0.418324 0.001992
vt 0.418354 0.321187
vt 0.615688 0.320999
vt 0.534465 0.480409
vt 0.479536 0.508396
vt 0.106264 0.709232
vt 0.167446 0.522023
vt 0.051335 0.681244
vt 0.578057 0.436817
vt 0.169608 0.998008
vt 0.175197 0.985007
vt 0.169608 0.998008
vt 0.161209 0.838969
vt 0.001988 0.722858
vt 0.117617 0.882561
vt 0.167472 0.932250
vt 0.167472 0.932250
vt 0.418647 0.518040
vt 0.408233 0.518040
vt 0.001988 0.518040
vt 0.167153 0.718876
vt 0.106264 0.709232
vt 0.606045 0.381888
vt 0.660138 0.436817
vt 0.632150 0.381888
vt 0.632150 0.381888
vt 0.792288 0.847044
vt 0.792288 0.440799
vt 0.731399 0.440799
vt 0.731399 0.847044
vt 0.725277 0.847044
vt 0.725277 0.440799
vt 0.670349 0.440799
vt 0.670349 0.847044
vt 0.664227 0.847044
vt 0.664227 0.440799
vt 0.620635 0.440799
vt 0.620635 0.847044
vt 0.614513 0.928267
vt 0.614513 0.522022
vt 0.559585 0.522022
vt 0.559585 0.928267
vt 0.234456 0.928267
vt 0.234456 0.522022
vt 0.173567 0.522022
vt 0.173567 0.928267
vt 0.553463 0.928267
vt 0.553463 0.522022
vn 0.000000 0.000089 1.000000
vn 0.000000 0.000089 1.000000
vn 0.000000 0.000089 1.000000
vn 0.000000 0.000089 1.000000
vn -1.000000 0.000141 0.000240
vn -1.000000 0.000141 0.000240
vn -1.000000 0.000141 0.000240
vn -1.000000 0.000141 0.000240
vn 0.000000 -1.000000 0.000000
vn 0.000000 -1.000000 0.000000
vn 0.000000 -1.000000 0.000000
vn 0.000000 -1.000000 0.000000
vn 1.000000 0.000141 -0.000623
vn 1.000000 0.000141 -0.000623
vn 1.000000 0.000141 -0.000623
vn 1.000000 0.000141 -0.000623
vn 1.000000 0.000329 -0.000177
vn 1.000000 0.000329 -0.000177
vn 1.000000 0.000329 -0.000177
vn -1.000000 -0.000411 0.000221
vn -1.000000 -0.000411 0.000221
vn -1.000000 -0.000411 0.000221
vn 1.000000 0.000261 -0.000275
vn 1.000000 0.000261 -0.000275
vn 1.000000 0.000261 -0.000275
vn 0.000000 0.000000 0.000000
vn 0.000000 0.000000 0.000000
vn 0.000000 0.000000 0.000000
vn -1.000000 -0.000326 0.000344
vn -1.000000 -0.000326 0.000344
vn -1.000000 -0.000326 0.000344
vn -0.999998 0.000000 0.001953
vn -0.999998 0.000000 0.001953
vn -0.000000 0.000000 0.000000
vn 1.000000 0.000365 -0.000061
vn 1.000000 0.000365 -0.000061
vn 1.000000 0.000365 -0.000061
vn 0.000000 0.001410 0.999999
vn 0.000000 0.001410 0.999999
vn 0.000000 0.001410 0.999999
vn 0.000000 0.001410 0.999999
vn -1.000000 -0.000456 0.000076
vn -1.000000 -0.000456 0.000076
vn -1.000000 -0.000456 0.000076
vn 0.000000 0.000000 0.000000
vn 0.000000 0.000000 0.000000
vn 0.000000 0.000000 0.000000
vn 1.000000 0.000167 -0.000346
vn 1.000000 0.000167 -0.000346
vn 1.000000 0.000167 -0.000346
vn -1.000000 -0.000209 0.000433
vn -1.000000 -0.000209 0.000433
vn -1.000000 -0.000209 0.000433
vn 1.000000 0.000058 -0.000383
vn 1.000000 0.000058 -0.000383
vn 1.000000 0.000058 -0.000383
vn -1.000000 0.000000 0.000488
vn -1.000000 0.000000 0.000488
vn -0.000000 0.000000 0.000000
vn -1.000000 -0.000072 0.000480
vn -1.000000 -0.000072 0.000480
vn -1.000000 -0.000072 0.000480
vn -0.000000 0.986350 -0.164664
vn -0.000000 0.986350 -0.164664
vn -0.000000 0.986350 -0.164664
vn -0.000000 0.986350 -0.164664
vn 0.000000 0.880983 -0.473147
vn 0.000000 0.880983 -0.473147
vn 0.000000 0.880983 -0.473147
vn 0.000000 0.880983 -0.473147
vn 0.000000 0.688261 -0.725463
vn 0.000000 0.688261 -0.725463
vn 0.000000 0.688261 -0.725463
vn 0.000000 0.688261 -0.725463
vn 0.000001 0.435214 -0.900327
vn 0.000001 0.435214 -0.900327
vn 0.000001 0.435214 -0.900327
vn 0.000001 0.435214 -0.900327
vn 0.000000 0.148595 -0.988898
vn 0.000000 0.148595 -0.988898
vn 0.000000 0.148595 -0.988898
vn 0.000000 0.148595 -0.988898
vn 0.000000 0.000000 -1.000000
vn 0.000000 0.000000 -1.000000
vn 0.000000 0.000000 -1.000000
vn 0.000000 0.000000 -1.000000
vn 0.000000 0.000089 -1.000000
vn 0.000000 0.000089 -1.000000
vn 0.000000 0.000089 -1.000000
vn 0.000000 0.000089 -1.000000
vn -1.000000 0.000141 -0.000240
vn -1.000000 0.000141 -0.000240
vn -1.000000 0.000141 -0.000240
vn -1.000000 0.000141 -0.000240
vn 0.000000 -1.000000 0.000000
vn 0.000000 -1.000000 0.000000
vn 0.000000 -1.000000 0.000000
vn 0.000000 -1.000000 0.000000
vn 1.000000 0.000141 0.000624
vn 1.000000 0.000141 0.000624
vn 1.000000 0.000141 0.000624
vn 1.000000 0.000141 0.000624
vn 1.000000 0.000329 0.000177
vn 1.000000 0.000329 0.000177
vn 1.000000 0.000329 0.000177
vn -1.000000 -0.000411 -0.000221
vn -1.000000 -0.000411 -0.000221
vn -1.000000 -0.000411 -0.000221
vn 1.000000 0.000261 0.000275
vn 1.000000 0.000261 0.000275
vn 1.000000 0.000261 0.000275
vn 0.000000 0.000000 0.000000
vn 0.000000 0.000000 0.000000
vn 0.000000 0.000000 0.000000
vn -1.000000 -0.000326 -0.000344
vn -1.000000 -0.000326 -0.000344
vn -1.000000 -0.000326 -0.000344
vn -0.999998 0.000000 -0.001752
vn -0.000000 0.000000 -0.000000
vn -0.999999 0.000000 -0.001752
vn 1.000000 0.000365 0.000061
vn 1.000000 0.000365 0.000061
vn 1.000000 0.000365 0.000061
vn 0.000000 0.001411 -0.999999
vn 0.000000 0.001411 -0.999999
vn 0.000000 0.001411 -0.999999
vn 0.000000 0.001411 -0.999999
vn -1.000000 -0.000456 -0.000076
vn -1.000000 -0.000456 -0.000076
vn -1.000000 -0.000456 -0.000076
vn -0.999993 -0.003672 0.000000
vn -0.000000 -0.000000 0.000000
vn -0.999993 -0.003672 0.000000
vn 1.000000 0.000167 0.000346
vn 1.000000 0.000167 0.000346
vn 1.000000 0.000167 0.000346
vn -1.000000 -0.000209 -0.000433
vn -1.000000 -0.000209 -0.000433
vn -1.000000 -0.000209 -0.000433
vn 1.000000 0.000058 0.000384
vn 1.000000 0.000058 0.000384
vn 1.000000 0.000058 0.000384
vn -1.000000 0.000000 -0.000531
vn -0.000000 0.000000 -0.000000
vn -1.000000 0.000000 -0.000531
vn -1.000000 -0.000072 -0.000480
vn -1.000000 -0.000072 -0.000480
vn -1.000000 -0.000072 -0.000480
vn -0.000000 0.986350 0.164664
vn -0.000000 0.986350 0.164664
vn -0.000000 0.986350 0.164664
vn -0.000000 0.986350 0.164664
vn 0.000000 0.880984 0.473147
vn 0.000000 0.880984 0.473147
vn 0.000000 0.880984 0.473147
vn 0.000000 0.880984 0.473147
vn 0.000000 0.688261 0.725463
vn 0.000000 0.688261 0.725463
vn 0.000000 0.688261 0.725463
vn 0.000000 0.688261 0.725463
vn 0.000001 0.435214 0.900327
vn 0.000001 0.435214 0.900327
vn 0.000001 0.435214 0.900327
vn 0.000001 0.435214 0.900327
vn 0.000000 0.148595 0.988898
vn 0.000000 0.148595 0.988898
vn 0.000000 0.148595 0.988898
vn 0.000000 0.148595 0.988898
vn 0.000000 0.000000 1.000000
vn 0.000000 0.000000 1.000000
vn 0.000000 0.000000 1.000000
vn 0.000000 0.000000 1.000000
s off
g PuertaHorno:polySurface6
usemtl PuertaHorno:phong1SG
f 19/1/1 20/2/2 21/3/3 22/4/4
f 17/5/5 18/6/6 20/7/7 19/8/8
f 18/9/9 15/10/10 21/11/11 20/12/12
f 15/13/13 3/14/14 22/15/15 21/16/16
f 5/17/17 6/18/18 22/15/19
f 7/19/20 8/20/21 19/21/22
f 9/22/23 5/17/24 22/15/25
f 8/23/26 10/24/27 19/25/28
f 10/26/29 11/27/30 19/28/31
f 11/29/32 12/30/33 19/25/34
f 6/18/35 13/31/36 22/15/37
f 13/32/38 1/33/39 19/1/40 22/4/41
f 1/34/42 2/35/43 19/21/44
f 2/35/45 7/19/46 19/21/47
f 4/36/48 9/22/49 22/15/50
f 12/37/51 14/38/52 19/8/53
f 3/14/54 4/36/55 22/15/56
f 14/38/57 16/39/58 19/8/59
f 16/39/60 17/5/61 19/8/62
f 2/40/63 1/41/64 13/42/65 6/43/66
f 8/44/67 7/45/68 6/46/69 5/47/70
f 11/48/71 10/49/72 5/50/73 9/51/74
f 14/52/75 12/53/76 9/54/77 4/55/78
f 17/56/79 16/57/80 4/58/81 3/59/82
f 18/60/83 17/56/84 3/59/85 15/61/86
usemtl PuertaHorno:phong1SG2
f 41/62/87 44/63/88 43/64/89 42/65/90
f 39/66/91 41/67/92 42/68/93 40/69/94
f 40/70/95 42/71/96 43/72/97 37/73/98
f 37/74/99 43/75/100 44/76/101 25/77/102
f 27/78/103 44/76/104 28/79/105
f 29/80/106 41/81/107 30/82/108
f 31/83/109 44/76/110 27/78/111
f 30/84/112 41/85/113 32/86/114
f 32/87/115 41/88/116 33/89/117
f 33/90/118 41/85/119 34/91/120
f 28/79/121 44/76/122 35/92/123
f 35/93/124 44/63/125 41/62/126 23/94/127
f 23/95/128 41/81/129 24/96/130
f 24/96/131 41/81/132 29/80/133
f 26/97/134 44/76/135 31/83/136
f 34/98/137 41/67/138 36/99/139
f 25/77/140 44/76/141 26/97/142
f 36/99/143 41/67/144 38/100/145
f 38/100/146 41/67/147 39/66/148
f 24/101/149 28/102/150 35/103/151 23/104/152
f 30/105/153 27/106/154 28/107/155 29/108/156
f 33/109/157 31/110/158 27/111/159 32/112/160
f 36/113/161 26/114/162 31/115/163 34/116/164
f 39/117/165 25/118/166 26/119/167 38/120/168
f 40/121/169 37/122/170 25/118/171 39/117/172
