# This file uses centimeters as units for non-parametric coordinates.

mtllib Puerta.mtl
g default
v -0.556740 -12.768936 11.647972
v -0.556740 -12.768936 1.706436
v -0.521038 7.905573 12.150507
v -0.521038 7.905573 1.203903
v -0.385418 -13.522408 12.445524
v -0.385418 -13.522408 0.908886
v -0.385441 8.184284 12.445524
v -0.385441 8.184284 0.908886
v -0.385418 -8.575644 12.445524
v -0.385418 -8.575644 0.908886
v -0.521015 -8.423964 12.150507
v -0.521015 -8.423964 1.203903
v 0.000011 -14.381060 0.000000
v -0.000011 -14.381060 13.354408
v -0.000011 9.042936 13.354408
v -0.000011 9.042936 0.000000
v 0.000011 -9.042936 13.354408
v 0.000011 -9.042936 0.000000
v -0.521038 -13.243694 12.150507
v -0.521038 -13.243694 1.203903
v -0.556717 -8.898724 11.647972
v -0.556717 -8.898724 1.706436
v -0.385441 -8.668228 11.891953
v -0.385441 -8.668228 1.462456
v -0.385441 -12.999430 11.891953
v -0.385441 -12.999430 1.462456
vt 0.618261 0.660995
vt 0.625000 0.666667
vt 0.625000 0.583333
vt 0.618261 0.589005
vt 0.447887 0.589005
vt 0.441148 0.583333
vt 0.441148 0.666667
vt 0.447887 0.660995
vt 0.579434 0.589005
vt 0.583102 0.583333
vt 0.579434 0.660995
vt 0.583102 0.666667
vt 0.612347 0.593982
vt 0.612347 0.656018
vt 0.581970 0.656018
vt 0.581970 0.593982
vt 8.566206 -0.065798
vt 8.656814 -0.169123
vt 7.330163 -0.524429
vt 7.302225 -0.404320
vt 8.566206 1.893491
vt 8.656814 2.011160
vt 7.330163 1.655852
vt 7.302225 1.554969
vt 0.616073 0.659154
vt 0.616073 0.590846
vt 0.450075 0.590846
vt 0.450075 0.659154
vt 0.578243 0.590846
vt 0.578243 0.659154
vt 7.406674 1.457078
vt 8.611518 1.779763
vt 8.611518 0.029010
vt 7.406674 -0.293674
vn -0.912308 -0.409504 0.000000
vn -0.912308 -0.409504 0.000000
vn -0.912308 -0.409504 0.000000
vn -0.912308 -0.409504 0.000000
vn -0.912308 0.409504 0.000000
vn -0.912308 0.409504 0.000000
vn -0.912308 0.409504 0.000000
vn -0.912308 0.409504 0.000000
vn -0.920639 0.000000 0.390416
vn -0.920639 0.000000 0.390416
vn -0.920639 0.000000 0.390416
vn -0.920639 0.000000 0.390416
vn -0.920639 0.000000 -0.390416
vn -0.920639 0.000000 -0.390416
vn -0.920639 0.000000 -0.390416
vn -0.920639 0.000000 -0.390416
vn -0.920639 0.000000 -0.390416
vn -0.920639 0.000000 -0.390416
vn -0.920639 0.000000 -0.390416
vn -0.920639 0.000000 -0.390416
vn -0.920639 0.000000 0.390416
vn -0.920639 0.000000 0.390416
vn -0.920639 0.000000 0.390416
vn -0.920639 0.000000 0.390416
vn 1.000000 0.000000 0.000000
vn 1.000000 0.000000 0.000000
vn 1.000000 0.000000 0.000000
vn 1.000000 0.000000 0.000000
vn 1.000000 0.000000 0.000000
vn 1.000000 0.000000 0.000000
vn 1.000000 0.000000 0.000000
vn 1.000000 0.000000 0.000000
vn 1.000000 0.000000 0.000000
vn 1.000000 0.000000 0.000000
vn 1.000000 0.000000 0.000000
vn 1.000000 0.000000 0.000000
vn 1.000000 0.000000 0.000000
vn 1.000000 0.000000 0.000000
vn 1.000000 0.000000 0.000000
vn 1.000000 0.000000 0.000000
vn 1.000000 0.000000 0.000000
vn 1.000000 0.000000 0.000000
vn 1.000000 0.000000 0.000000
vn 1.000000 0.000000 0.000000
vn -1.000000 0.000000 0.000000
vn -1.000000 0.000000 0.000000
vn -1.000000 0.000000 0.000000
vn -1.000000 0.000000 0.000000
vn -1.000000 0.000000 0.000000
vn -1.000000 0.000000 0.000000
vn -1.000000 0.000000 0.000000
vn -1.000000 0.000000 0.000000
vn -1.000000 0.000000 0.000000
vn -1.000000 0.000000 0.000000
vn -1.000000 0.000000 0.000000
vn -1.000000 0.000000 0.000000
vn -1.000000 0.000000 0.000000
vn -1.000000 0.000000 0.000000
vn -1.000000 0.000000 0.000000
vn -1.000000 0.000000 0.000000
vn -1.000000 0.000000 0.000000
vn -1.000000 0.000000 0.000000
vn -1.000000 0.000000 0.000000
vn -1.000000 0.000000 0.000000
vn -1.000000 0.000000 0.000000
vn -1.000000 0.000000 0.000000
vn -1.000000 0.000000 0.000000
vn -1.000000 0.000000 0.000000
vn 0.802608 -0.596506 0.000000
vn 0.802608 -0.596506 0.000000
vn 0.802608 -0.596506 0.000000
vn 0.802608 -0.596506 0.000000
vn 0.802608 0.596506 0.000000
vn 0.802608 0.596506 0.000000
vn 0.802608 0.596506 0.000000
vn 0.802608 0.596506 0.000000
vn 0.818423 0.000000 -0.574616
vn 0.818423 0.000000 -0.574616
vn 0.818423 0.000000 -0.574616
vn 0.818423 0.000000 -0.574616
vn 0.818423 0.000000 0.574616
vn 0.818423 0.000000 0.574616
vn 0.818423 0.000000 0.574616
vn 0.818423 0.000000 0.574616
s off
g polySurface106 polySurface104
usemtl lambert10SG
f 6/1/1 13/2/2 14/3/3 5/4/4
f 7/5/5 15/6/6 16/7/7 8/8/8
f 9/9/9 17/10/10 15/6/11 7/5/12
f 10/11/13 18/12/14 13/2/15 6/1/16
f 8/8/17 16/7/18 18/12/19 10/11/20
f 5/4/21 14/3/22 17/10/23 9/9/24
f 1/13/25 2/14/26 22/15/27 21/16/28
f 25/17/29 19/18/30 20/19/31 26/20/32
f 23/21/33 11/22/34 19/18/35 25/17/36
f 26/20/37 20/19/38 12/23/39 24/24/40
f 24/24/41 12/23/42 11/22/43 23/21/44
f 20/25/45 6/1/46 5/4/47 19/26/48
f 3/27/49 7/5/50 8/8/51 4/28/52
f 11/29/53 9/9/54 7/5/55 3/27/56
f 12/30/57 10/11/58 6/1/59 20/25/60
f 4/28/61 8/8/62 10/11/63 12/30/64
f 19/26/65 5/4/66 9/9/67 11/29/68
f 22/31/69 24/24/70 23/21/71 21/32/72
f 1/33/73 25/17/74 26/20/75 2/34/76
f 21/32/77 23/21/78 25/17/79 1/33/80
f 2/34/81 26/20/82 24/24/83 22/31/84
