# This file uses centimeters as units for non-parametric coordinates.

mtllib VidrioPuerta.mtl
g default
v -0.521021 7.905573 12.150507
v -0.521021 7.905573 1.203903
v -0.521044 -8.423964 12.150507
v -0.521044 -8.423964 1.203903
vt 0.001335 0.001992
vt 0.669021 0.001992
vt 0.669021 0.998008
vt 0.001335 0.998008
vn 1.000000 0.000000 0.000000
vn 1.000000 0.000000 0.000000
vn 1.000000 0.000000 0.000000
vn 1.000000 0.000000 0.000000
s off
g polySurface107 polySurface104
usemtl lambert12SG
f 3/1/1 4/2/2 2/3/3 1/4/4
