# This file uses centimeters as units for non-parametric coordinates.

mtllib money.mtl
g default
v -34.314728 1.797709 9.623331
v -33.256596 1.797272 9.674158
v -34.314766 1.628003 9.622695
v -33.256638 1.627567 9.673521
v -34.311901 1.628226 9.563041
v -33.253773 1.627789 9.613868
v -34.311863 1.797932 9.563678
v -33.253731 1.797495 9.614505
v -34.304741 1.766256 10.186125
v -33.291679 1.765837 10.234788
v -34.304771 1.643305 10.185664
v -33.291710 1.642886 10.234326
v -34.276825 1.645480 9.603821
v -33.263756 1.645061 9.652484
v -34.276794 1.768431 9.604282
v -33.263729 1.768013 9.652945
vt 0.375000 0.000000
vt 0.375000 0.250000
vt 0.625000 0.250000
vt 0.625000 0.000000
vt 0.375000 0.500000
vt 0.625000 0.500000
vt 0.375000 0.750000
vt 0.625000 0.750000
vt 0.375000 1.000000
vt 0.625000 1.000000
vt 0.875000 0.250000
vt 0.875000 0.000000
vt 0.125000 0.000000
vt 0.125000 0.250000
vt 0.375000 0.000000
vt 0.375000 0.250000
vt 0.625000 0.250000
vt 0.625000 0.000000
vt 0.375000 0.500000
vt 0.625000 0.500000
vt 0.375000 0.750000
vt 0.625000 0.750000
vt 0.375000 1.000000
vt 0.625000 1.000000
vt 0.875000 0.250000
vt 0.875000 0.000000
vt 0.125000 0.000000
vt 0.125000 0.250000
vn -0.047981 -0.003735 0.998841
vn -0.047981 -0.003735 0.998841
vn -0.047981 -0.003735 0.998841
vn -0.047981 -0.003735 0.998841
vn -0.000233 -0.999993 -0.003749
vn -0.000233 -0.999993 -0.003749
vn -0.000233 -0.999993 -0.003749
vn -0.000233 -0.999993 -0.003749
vn 0.047981 0.003733 -0.998841
vn 0.047981 0.003733 -0.998841
vn 0.047981 0.003733 -0.998841
vn 0.047981 0.003733 -0.998841
vn 0.000233 0.999993 0.003745
vn 0.000233 0.999993 0.003745
vn 0.000233 0.999993 0.003745
vn 0.000233 0.999993 0.003745
vn 0.998848 -0.000412 0.047980
vn 0.998848 -0.000412 0.047980
vn 0.998848 -0.000412 0.047980
vn 0.998848 -0.000412 0.047980
vn -0.998848 0.000413 -0.047980
vn -0.998848 0.000413 -0.047980
vn -0.998848 0.000413 -0.047980
vn -0.998848 0.000413 -0.047980
vn -0.047981 -0.003733 0.998841
vn -0.047981 -0.003733 0.998841
vn -0.047981 -0.003733 0.998841
vn -0.047981 -0.003733 0.998841
vn -0.000233 -0.999993 -0.003748
vn -0.000233 -0.999993 -0.003748
vn -0.000233 -0.999993 -0.003748
vn -0.000233 -0.999993 -0.003748
vn 0.047981 0.003733 -0.998841
vn 0.047981 0.003733 -0.998841
vn 0.047981 0.003733 -0.998841
vn 0.047981 0.003733 -0.998841
vn 0.000233 0.999993 0.003748
vn 0.000233 0.999993 0.003748
vn 0.000233 0.999993 0.003748
vn 0.000233 0.999993 0.003748
vn 0.998848 -0.000413 0.047979
vn 0.998848 -0.000413 0.047979
vn 0.998848 -0.000413 0.047979
vn 0.998848 -0.000413 0.047979
vn -0.998848 0.000412 -0.047979
vn -0.998848 0.000412 -0.047979
vn -0.998848 0.000412 -0.047979
vn -0.998848 0.000412 -0.047979
s off
g polySurface297
usemtl toysrus3:blinn2SG4
f 1/1/1 3/2/2 4/3/3 2/4/4
f 3/2/5 5/5/6 6/6/7 4/3/8
f 5/5/9 7/7/10 8/8/11 6/6/12
f 7/7/13 1/9/14 2/10/15 8/8/16
f 2/4/17 4/3/18 6/11/19 8/12/20
f 7/13/21 5/14/22 3/2/23 1/1/24
f 9/15/25 11/16/26 12/17/27 10/18/28
f 11/16/29 13/19/30 14/20/31 12/17/32
f 13/19/33 15/21/34 16/22/35 14/20/36
f 15/21/37 9/23/38 10/24/39 16/22/40
f 10/18/41 12/17/42 14/25/43 16/26/44
f 15/27/45 13/28/46 11/16/47 9/15/48
